# xmcd
#
# Track frame offsets: 
#        150
#        4977
#        25183
#        43033
#        67461
#        89942
#        117716
#        141834
#        171978
#        189374
#        214395
#        238265
#        258297
#        278711
#        294562
#        314382
#        339109
#
# Disc length: 4749 seconds
#
# Revision: 0
# Processed by: cddbd v1.5.2PL0 Copyright (c) Steve Scherf et al.
# Submitted via: ExactAudioCopy v0.99pb3
#
DISCID=13128b11
DTITLE=Gotthard - Homegrown Alive In Lugano
DYEAR=2011
DGENRE=Blues
TTITLE0=Intro
TTITLE1=Unspoken Words
TTITLE2=Gone Too Far
TTITLE3=Top Of The World
TTITLE4=Need To Believe
TTITLE5=Hush
TTITLE6=Unconditional Faith
TTITLE7=Acoustic Medley 2010
TTITLE8=Shangri La
TTITLE9=I Don't Mind
TTITLE10=Heaven
TTITLE11=The Oscar Goes To
TTITLE12=Lift U Up
TTITLE13=Leo vs. Steve (Guitar Vocal Solo)
TTITLE14=Sister Moon
TTITLE15=Anytime Anywhere
TTITLE16=The Train (Unreleased Studio Track)
EXTD=
EXTT0=
EXTT1=
EXTT2=
EXTT3=
EXTT4=
EXTT5=
EXTT6=
EXTT7=
EXTT8=
EXTT9=
EXTT10=
EXTT11=
EXTT12=
EXTT13=
EXTT14=
EXTT15=
EXTT16=
PLAYORDER=
